<svg xmlns="http://www.w3.org/2000/svg" width="2400" height="1400" viewBox="0 0 2400 1400">

  <!-- ====================================================== -->
  <!-- BACKGROUND                                             -->
  <!-- ====================================================== -->

  <rect width="2400" height="1400" fill="#f4f2ec"/>

  <!-- technical grid -->
  <g stroke="#1c1b17" stroke-width="1" opacity="0.045">
    <line x1="40" y1="0" x2="40" y2="1400"/>
    <line x1="100" y1="0" x2="100" y2="1400"/>
    <line x1="160" y1="0" x2="160" y2="1400"/>
    <line x1="220" y1="0" x2="220" y2="1400"/>
    <line x1="280" y1="0" x2="280" y2="1400"/>
    <line x1="340" y1="0" x2="340" y2="1400"/>
    <line x1="400" y1="0" x2="400" y2="1400"/>
    <line x1="460" y1="0" x2="460" y2="1400"/>
    <line x1="520" y1="0" x2="520" y2="1400"/>
    <line x1="580" y1="0" x2="580" y2="1400"/>
    <line x1="640" y1="0" x2="640" y2="1400"/>
    <line x1="700" y1="0" x2="700" y2="1400"/>
    <line x1="760" y1="0" x2="760" y2="1400"/>
    <line x1="820" y1="0" x2="820" y2="1400"/>
    <line x1="880" y1="0" x2="880" y2="1400"/>
    <line x1="940" y1="0" x2="940" y2="1400"/>
    <line x1="1000" y1="0" x2="1000" y2="1400"/>
    <line x1="1060" y1="0" x2="1060" y2="1400"/>
    <line x1="1120" y1="0" x2="1120" y2="1400"/>
    <line x1="1180" y1="0" x2="1180" y2="1400"/>
    <line x1="1240" y1="0" x2="1240" y2="1400"/>
    <line x1="1300" y1="0" x2="1300" y2="1400"/>
    <line x1="1360" y1="0" x2="1360" y2="1400"/>
    <line x1="1420" y1="0" x2="1420" y2="1400"/>
    <line x1="1480" y1="0" x2="1480" y2="1400"/>
    <line x1="1540" y1="0" x2="1540" y2="1400"/>
    <line x1="1600" y1="0" x2="1600" y2="1400"/>
    <line x1="1660" y1="0" x2="1660" y2="1400"/>
    <line x1="1720" y1="0" x2="1720" y2="1400"/>
    <line x1="1780" y1="0" x2="1780" y2="1400"/>
    <line x1="1840" y1="0" x2="1840" y2="1400"/>
    <line x1="1900" y1="0" x2="1900" y2="1400"/>
    <line x1="1960" y1="0" x2="1960" y2="1400"/>
    <line x1="2020" y1="0" x2="2020" y2="1400"/>
    <line x1="2080" y1="0" x2="2080" y2="1400"/>
    <line x1="2140" y1="0" x2="2140" y2="1400"/>
    <line x1="2200" y1="0" x2="2200" y2="1400"/>
    <line x1="2260" y1="0" x2="2260" y2="1400"/>
    <line x1="2320" y1="0" x2="2320" y2="1400"/>

    <line x1="0" y1="40" x2="2400" y2="40"/>
    <line x1="0" y1="100" x2="2400" y2="100"/>
    <line x1="0" y1="160" x2="2400" y2="160"/>
    <line x1="0" y1="220" x2="2400" y2="220"/>
    <line x1="0" y1="280" x2="2400" y2="280"/>
    <line x1="0" y1="340" x2="2400" y2="340"/>
    <line x1="0" y1="400" x2="2400" y2="400"/>
    <line x1="0" y1="460" x2="2400" y2="460"/>
    <line x1="0" y1="520" x2="2400" y2="520"/>
    <line x1="0" y1="580" x2="2400" y2="580"/>
    <line x1="0" y1="640" x2="2400" y2="640"/>
    <line x1="0" y1="700" x2="2400" y2="700"/>
    <line x1="0" y1="760" x2="2400" y2="760"/>
    <line x1="0" y1="820" x2="2400" y2="820"/>
    <line x1="0" y1="880" x2="2400" y2="880"/>
    <line x1="0" y1="940" x2="2400" y2="940"/>
    <line x1="0" y1="1000" x2="2400" y2="1000"/>
    <line x1="0" y1="1060" x2="2400" y2="1060"/>
    <line x1="0" y1="1120" x2="2400" y2="1120"/>
    <line x1="0" y1="1180" x2="2400" y2="1180"/>
    <line x1="0" y1="1240" x2="2400" y2="1240"/>
    <line x1="0" y1="1300" x2="2400" y2="1300"/>
    <line x1="0" y1="1360" x2="2400" y2="1360"/>
  </g>

  <!-- outer frame -->
  <rect x="55" y="150" width="2290" height="1185"
        fill="none"
        stroke="#2F5D50"
        stroke-width="2"
        opacity="0.24"/>

  <!-- ====================================================== -->
  <!-- HEADER                                                  -->
  <!-- ====================================================== -->

  <text x="75" y="72"
        font-family="Arial, Helvetica, sans-serif"
        font-size="38"
        font-weight="700"
        letter-spacing="3"
        fill="#1c1b17">ROBOT ARCHITECTURE</text>

  <text x="77" y="110"
        font-family="Arial, Helvetica, sans-serif"
        font-size="14"
        letter-spacing="4"
        fill="#6e6b63">MANIPULATOR CONTROL SYSTEM / ROBOTICS / AUTOMATION</text>

  <circle cx="2250" cy="76" r="6" fill="#2F5D50"/>

  <text x="2270" y="82"
        font-family="Arial, Helvetica, sans-serif"
        font-size="13"
        letter-spacing="2"
        fill="#2F5D50">ONLINE</text>


  <!-- ====================================================== -->
  <!-- TOP ARCHITECTURE                                       -->
  <!-- ====================================================== -->

  <!-- SENSOR -->
  <rect x="80" y="205" width="310" height="450"
        rx="3"
        fill="#fcfbf8"
        stroke="#2F5D50"
        stroke-width="2"/>

  <text x="105" y="240"
        font-family="Arial, Helvetica, sans-serif"
        font-size="12"
        letter-spacing="2.5"
        fill="#6e6b63">01 / SENSING</text>

  <text x="105" y="276"
        font-family="Arial, Helvetica, sans-serif"
        font-size="24"
        font-weight="700"
        fill="#1c1b17">SENSOR ARRAY</text>

  <line x1="105" y1="300" x2="365" y2="300"
        stroke="#1c1b17"
        stroke-width="1"
        opacity="0.12"/>

  <!-- sensor blocks -->
  <rect x="105" y="330" width="110" height="70"
        fill="#ece9e0"
        stroke="#2F5D50"
        stroke-width="1.5"/>

  <circle cx="125" cy="365" r="12"
          fill="none"
          stroke="#2F5D50"
          stroke-width="2"/>

  <circle cx="125" cy="365" r="4"
          fill="#2F5D50"/>

  <text x="143" y="369"
        font-family="Arial, Helvetica, sans-serif"
        font-size="12"
        fill="#1c1b17">POSITION</text>

  <rect x="230" y="330" width="110" height="70"
        fill="#f7f5ef"
        stroke="#2F5D50"
        stroke-width="1.5"/>

  <circle cx="260" cy="365" r="12"
          fill="none"
          stroke="#2F5D50"
          stroke-width="2"/>

  <path d="M253 365 L267 365 M260 358 L260 372"
        stroke="#2F5D50"
        stroke-width="2"/>

  <text x="283" y="370"
        font-family="Arial, Helvetica, sans-serif"
        font-size="12"
        fill="#1c1b17">FORCE</text>

  <rect x="105" y="415" width="110" height="70"
        fill="#f7f5ef"
        stroke="#2F5D50"
        stroke-width="1.5"/>

  <circle cx="135" cy="450" r="12"
          fill="none"
          stroke="#2F5D50"
          stroke-width="2"/>

  <path d="M128 457 L142 443 M142 457 L128 443"
        stroke="#2F5D50"
        stroke-width="2"/>

  <text x="158" y="455"
        font-family="Arial, Helvetica, sans-serif"
        font-size="12"
        fill="#1c1b17">ENCODER</text>

  <rect x="230" y="415" width="110" height="70"
        fill="#ece9e0"
        stroke="#2F5D50"
        stroke-width="1.5"/>

  <circle cx="260" cy="450" r="12"
          fill="none"
          stroke="#2F5D50"
          stroke-width="2"/>

  <path d="M253 450 Q260 440 267 450 Q260 460 253 450"
        fill="none"
        stroke="#2F5D50"
        stroke-width="2"/>

  <text x="283" y="455"
        font-family="Arial, Helvetica, sans-serif"
        font-size="12"
        fill="#1c1b17">DISTANCE</text>

  <rect x="105" y="500" width="235" height="65"
        fill="#fcfbf8"
        stroke="#1c1b17"
        stroke-width="1"/>

  <text x="122" y="528"
        font-family="Arial, Helvetica, sans-serif"
        font-size="11"
        letter-spacing="1.5"
        fill="#6e6b63">RAW INPUT</text>

  <line x1="122" y1="545" x2="335" y2="545"
        stroke="#2F5D50"
        stroke-width="3"
        stroke-dasharray="8 7"/>

  <circle cx="335" cy="545" r="5" fill="#2F5D50"/>

  <text x="105" y="610"
        font-family="Arial, Helvetica, sans-serif"
        font-size="11"
        letter-spacing="1.5"
        fill="#9a968c">MEASURE → FILTER → STATE</text>


  <!-- VISION -->
  <rect x="420" y="205" width="350" height="450"
        rx="3"
        fill="#f7f5ef"
        stroke="#2F5D50"
        stroke-width="2"/>

  <text x="445" y="240"
        font-family="Arial, Helvetica, sans-serif"
        font-size="12"
        letter-spacing="2.5"
        fill="#6e6b63">02 / PERCEPTION</text>

  <text x="445" y="276"
        font-family="Arial, Helvetica, sans-serif"
        font-size="24"
        font-weight="700"
        fill="#1c1b17">VISION</text>

  <line x1="445" y1="300" x2="745" y2="300"
        stroke="#1c1b17"
        stroke-width="1"
        opacity="0.12"/>

  <!-- camera -->
  <rect x="480" y="330" width="230" height="135"
        rx="5"
        fill="#fcfbf8"
        stroke="#1c1b17"
        stroke-width="2"/>

  <rect x="505" y="350" width="180" height="95"
        fill="#ece9e0"
        stroke="#2F5D50"
        stroke-width="1.5"/>

  <circle cx="595" cy="397" r="32"
          fill="none"
          stroke="#2F5D50"
          stroke-width="3"/>

  <circle cx="595" cy="397" r="13"
          fill="none"
          stroke="#2F5D50"
          stroke-width="2"/>

  <circle cx="595" cy="397" r="4"
          fill="#2F5D50"/>

  <!-- vision boxes -->
  <rect x="520" y="365" width="38" height="48"
        fill="none"
        stroke="#2F5D50"
        stroke-width="2"/>

  <rect x="635" y="375" width="34" height="42"
        fill="none"
        stroke="#2F5D50"
        stroke-width="2"/>

  <text x="480" y="500"
        font-family="Arial, Helvetica, sans-serif"
        font-size="14"
        fill="#1c1b17">OBJECT DETECTION</text>

  <text x="480" y="535"
        font-family="Arial, Helvetica, sans-serif"
        font-size="14"
        fill="#1c1b17">DEPTH ESTIMATION</text>

  <text x="480" y="570"
        font-family="Arial, Helvetica, sans-serif"
        font-size="14"
        fill="#1c1b17">TARGET TRACKING</text>

  <rect x="480" y="595" width="230" height="28"
        fill="#ece9e0"/>

  <text x="595" y="614"
        text-anchor="middle"
        font-family="Arial, Helvetica, sans-serif"
        font-size="10"
        letter-spacing="1.2"
        fill="#6e6b63">IMAGE → FEATURES → MODEL</text>


  <!-- CONTROL -->
  <rect x="800" y="205" width="400" height="450"
        rx="3"
        fill="#fcfbf8"
        stroke="#2F5D50"
        stroke-width="2"/>

  <text x="825" y="240"
        font-family="Arial, Helvetica, sans-serif"
        font-size="12"
        letter-spacing="2.5"
        fill="#6e6b63">03 / CONTROL</text>

  <text x="825" y="276"
        font-family="Arial, Helvetica, sans-serif"
        font-size="24"
        font-weight="700"
        fill="#1c1b17">MOTION CONTROLLER</text>

  <line x1="825" y1="300" x2="1175" y2="300"
        stroke="#1c1b17"
        stroke-width="1"
        opacity="0.12"/>

  <!-- controller -->
  <rect x="835" y="330" width="330" height="105"
        fill="#ece9e0"
        stroke="#2F5D50"
        stroke-width="2"/>

  <text x="1000" y="360"
        text-anchor="middle"
        font-family="Arial, Helvetica, sans-serif"
        font-size="11"
        letter-spacing="2"
        fill="#6e6b63">REAL-TIME CONTROL LOOP</text>

  <text x="1000" y="398"
        text-anchor="middle"
        font-family="Arial, Helvetica, sans-serif"
        font-size="22"
        font-weight="700"
        fill="#1c1b17">PID / STATE / TRAJECTORY</text>

  <text x="1000" y="422"
        text-anchor="middle"
        font-family="Arial, Helvetica, sans-serif"
        font-size="11"
        fill="#6e6b63">1 kHz UPDATE</text>

  <!-- control pipeline -->
  <circle cx="865" cy="475" r="7" fill="#2F5D50"/>
  <line x1="878" y1="475" x2="930" y2="475"
        stroke="#2F5D50" stroke-width="2"/>
  <text x="945" y="480"
        font-family="Arial, Helvetica, sans-serif"
        font-size="14"
        fill="#1c1b17">STATE ESTIMATION</text>

  <circle cx="865" cy="520" r="7" fill="#2F5D50"/>
  <line x1="878" y1="520" x2="930" y2="520"
        stroke="#2F5D50" stroke-width="2"/>
  <text x="945" y="525"
        font-family="Arial, Helvetica, sans-serif"
        font-size="14"
        fill="#1c1b17">PATH PLANNING</text>

  <circle cx="865" cy="565" r="7" fill="#2F5D50"/>
  <line x1="878" y1="565" x2="930" y2="565"
        stroke="#2F5D50" stroke-width="2"/>
  <text x="945" y="570"
        font-family="Arial, Helvetica, sans-serif"
        font-size="14"
        fill="#1c1b17">JOINT COMMAND</text>

  <text x="825" y="615"
        font-family="Arial, Helvetica, sans-serif"
        font-size="11"
        letter-spacing="1.5"
        fill="#9a968c">TARGET → SOLVE → ACTUATE</text>


  <!-- ====================================================== -->
  <!-- MANIPULATOR                                             -->
  <!-- ====================================================== -->

  <rect x="1230" y="205" width="1090" height="450"
        rx="3"
        fill="#fcfbf8"
        stroke="#2F5D50"
        stroke-width="2"/>

  <text x="1255" y="240"
        font-family="Arial, Helvetica, sans-serif"
        font-size="12"
        letter-spacing="2.5"
        fill="#6e6b63">04 / ACTUATION</text>

  <text x="1255" y="276"
        font-family="Arial, Helvetica, sans-serif"
        font-size="24"
        font-weight="700"
        fill="#1c1b17">6-AXIS INDUSTRIAL MANIPULATOR</text>

  <line x1="1255" y1="300" x2="2295" y2="300"
        stroke="#1c1b17"
        stroke-width="1"
        opacity="0.12"/>


  <!-- manipulator workspace -->
  <path d="M1325 600
           A355 355 0 0 1 2020 360"
        fill="none"
        stroke="#2F5D50"
        stroke-width="1.5"
        stroke-dasharray="7 8"
        opacity="0.35"/>

  <path d="M1360 575
           C1480 500 1550 420 1650 450
           C1760 485 1850 400 1970 350"
        fill="none"
        stroke="#2F5D50"
        stroke-width="2"
        stroke-dasharray="8 7"
        opacity="0.55"/>

  <!-- coordinate system -->
  <line x1="1295" y1="595" x2="1360" y2="595"
        stroke="#2F5D50" stroke-width="2"/>
  <line x1="1295" y1="595" x2="1295" y2="530"
        stroke="#2F5D50" stroke-width="2"/>
  <line x1="1295" y1="595" x2="1330" y2="560"
        stroke="#2F5D50" stroke-width="2"/>

  <text x="1368" y="599"
        font-family="Arial, Helvetica, sans-serif"
        font-size="11"
        fill="#6e6b63">X</text>

  <text x="1290" y="520"
        font-family="Arial, Helvetica, sans-serif"
        font-size="11"
        fill="#6e6b63">Z</text>

  <text x="1335" y="555"
        font-family="Arial, Helvetica, sans-serif"
        font-size="11"
        fill="#6e6b63">Y</text>


  <!-- BASE -->
  <rect x="1390" y="545" width="145" height="48"
        rx="3"
        fill="#ece9e0"
        stroke="#1c1b17"
        stroke-width="2"/>

  <ellipse cx="1462" cy="535" rx="47" ry="18"
           fill="#f7f5ef"
           stroke="#1c1b17"
           stroke-width="3"/>

  <!-- AXIS 1 -->
  <line x1="1462" y1="535" x2="1462" y2="455"
        stroke="#2F5D50"
        stroke-width="30"
        stroke-linecap="round"/>

  <circle cx="1462" cy="455" r="29"
          fill="#fcfbf8"
          stroke="#1c1b17"
          stroke-width="3"/>

  <!-- AXIS 2 -->
  <line x1="1462" y1="455" x2="1565" y2="390"
        stroke="#2F5D50"
        stroke-width="27"
        stroke-linecap="round"/>

  <circle cx="1565" cy="390" r="27"
          fill="#fcfbf8"
          stroke="#1c1b17"
          stroke-width="3"/>

  <!-- AXIS 3 -->
  <line x1="1565" y1="390" x2="1665" y2="425"
        stroke="#2F5D50"
        stroke-width="24"
        stroke-linecap="round"/>

  <circle cx="1665" cy="425" r="25"
          fill="#fcfbf8"
          stroke="#1c1b17"
          stroke-width="3"/>

  <!-- AXIS 4 -->
  <line x1="1665" y1="425" x2="1750" y2="365"
        stroke="#2F5D50"
        stroke-width="21"
        stroke-linecap="round"/>

  <circle cx="1750" cy="365" r="23"
          fill="#fcfbf8"
          stroke="#1c1b17"
          stroke-width="3"/>

  <!-- AXIS 5 -->
  <line x1="1750" y1="365" x2="1840" y2="390"
        stroke="#2F5D50"
        stroke-width="18"
        stroke-linecap="round"/>

  <circle cx="1840" cy="390" r="21"
          fill="#fcfbf8"
          stroke="#1c1b17"
          stroke-width="3"/>

  <!-- AXIS 6 -->
  <line x1="1840" y1="390" x2="1910" y2="350"
        stroke="#2F5D50"
        stroke-width="15"
        stroke-linecap="round"/>

  <circle cx="1910" cy="350" r="18"
          fill="#fcfbf8"
          stroke="#1c1b17"
          stroke-width="3"/>

  <!-- TCP / GRIPPER -->
  <line x1="1910" y1="350" x2="1965" y2="350"
        stroke="#1c1b17"
        stroke-width="10"
        stroke-linecap="round"/>

  <line x1="1965" y1="350" x2="2000" y2="332"
        stroke="#1c1b17"
        stroke-width="7"/>

  <line x1="1965" y1="350" x2="2000" y2="368"
        stroke="#1c1b17"
        stroke-width="7"/>

  <circle cx="2008" cy="350" r="5"
          fill="#2F5D50"/>

  <!-- axis labels -->
  <text x="1435" y="430"
        font-family="Arial, Helvetica, sans-serif"
        font-size="10"
        fill="#6e6b63">J1</text>

  <text x="1535" y="365"
        font-family="Arial, Helvetica, sans-serif"
        font-size="10"
        fill="#6e6b63">J2</text>

  <text x="1638" y="405"
        font-family="Arial, Helvetica, sans-serif"
        font-size="10"
        fill="#6e6b63">J3</text>

  <text x="1722" y="340"
        font-family="Arial, Helvetica, sans-serif"
        font-size="10"
        fill="#6e6b63">J4</text>

  <text x="1810" y="365"
        font-family="Arial, Helvetica, sans-serif"
        font-size="10"
        fill="#6e6b63">J5</text>

  <text x="1880" y="325"
        font-family="Arial, Helvetica, sans-serif"
        font-size="10"
        fill="#6e6b63">J6</text>

  <text x="2025" y="355"
        font-family="Arial, Helvetica, sans-serif"
        font-size="11"
        fill="#2F5D50">TCP</text>


  <!-- manipulator info panel -->
  <rect x="2130" y="335" width="160" height="245"
        fill="#f7f5ef"
        stroke="#2F5D50"
        stroke-width="1.5"/>

  <text x="2150" y="365"
        font-family="Arial, Helvetica, sans-serif"
        font-size="11"
        letter-spacing="1.5"
        fill="#6e6b63">KINEMATICS</text>

  <text x="2160" y="400"
        font-family="Arial, Helvetica, sans-serif"
        font-size="13"
        fill="#1c1b17">J1  +32.4°</text>

  <text x="2160" y="430"
        font-family="Arial, Helvetica, sans-serif"
        font-size="13"
        fill="#1c1b17">J2  -18.7°</text>

  <text x="2160" y="460"
        font-family="Arial, Helvetica, sans-serif"
        font-size="13"
        fill="#1c1b17">J3  +41.2°</text>

  <text x="2160" y="490"
        font-family="Arial, Helvetica, sans-serif"
        font-size="13"
        fill="#1c1b17">J4  +15.8°</text>

  <text x="2160" y="520"
        font-family="Arial, Helvetica, sans-serif"
        font-size="13"
        fill="#1c1b17">J5  -27.1°</text>

  <text x="2160" y="550"
        font-family="Arial, Helvetica, sans-serif"
        font-size="13"
        fill="#1c1b17">J6  +08.5°</text>

  <!-- ====================================================== -->
  <!-- LOWER ROW                                               -->
  <!-- ====================================================== -->

  <!-- RESPONSE -->
  <rect x="80" y="700" width="560" height="555"
        rx="3"
        fill="#fcfbf8"
        stroke="#2F5D50"
        stroke-width="2"/>

  <text x="105" y="735"
        font-family="Arial, Helvetica, sans-serif"
        font-size="12"
        letter-spacing="2.5"
        fill="#6e6b63">05 / FEEDBACK</text>

  <text x="105" y="770"
        font-family="Arial, Helvetica, sans-serif"
        font-size="24"
        font-weight="700"
        fill="#1c1b17">SYSTEM RESPONSE</text>

  <line x1="105" y1="795" x2="615" y2="795"
        stroke="#1c1b17"
        stroke-width="1"
        opacity="0.12"/>

  <!-- graph -->
  <line x1="135" y1="1160" x2="600" y2="1160"
        stroke="#1c1b17"
        stroke-width="2"/>

  <line x1="135" y1="840" x2="135" y2="1160"
        stroke="#1c1b17"
        stroke-width="2"/>

  <g stroke="#1c1b17" stroke-width="1" opacity="0.08">
    <line x1="135" y1="890" x2="600" y2="890"/>
    <line x1="135" y1="940" x2="600" y2="940"/>
    <line x1="135" y1="990" x2="600" y2="990"/>
    <line x1="135" y1="1040" x2="600" y2="1040"/>
    <line x1="135" y1="1090" x2="600" y2="1090"/>

    <line x1="200" y1="840" x2="200" y2="1160"/>
    <line x1="265" y1="840" x2="265" y2="1160"/>
    <line x1="330" y1="840" x2="330" y2="1160"/>
    <line x1="395" y1="840" x2="395" y2="1160"/>
    <line x1="460" y1="840" x2="460" y2="1160"/>
    <line x1="525" y1="840" x2="525" y2="1160"/>
  </g>

  <line x1="135" y1="945" x2="600" y2="945"
        stroke="#9a968c"
        stroke-width="1.5"
        stroke-dasharray="6 7"/>

  <path d="M135 1160
           C160 1140 180 1080 200 1000
           C220 920 250 865 285 850
           C320 835 350 880 375 925
           C400 970 425 970 450 945
           C475 920 500 938 525 945
           C550 952 575 946 600 945"
        fill="none"
        stroke="#2F5D50"
        stroke-width="4"/>

  <text x="150" y="940"
        font-family="Arial, Helvetica, sans-serif"
        font-size="11"
        fill="#6e6b63">TARGET</text>

  <text x="350" y="850"
        font-family="Arial, Helvetica, sans-serif"
        font-size="11"
        fill="#2F5D50">OVERSHOOT</text>

  <text x="390" y="1210"
        font-family="Arial, Helvetica, sans-serif"
        font-size="11"
        letter-spacing="1.5"
        fill="#9a968c">RISE → OVERSHOOT → SETTLE</text>


  <!-- DATA BUS -->
  <rect x="670" y="700" width="500" height="555"
        rx="3"
        fill="#f7f5ef"
        stroke="#2F5D50"
        stroke-width="2"/>

  <text x="695" y="735"
        font-family="Arial, Helvetica, sans-serif"
        font-size="12"
        letter-spacing="2.5"
        fill="#6e6b63">06 / COMMUNICATION</text>

  <text x="695" y="770"
        font-family="Arial, Helvetica, sans-serif"
        font-size="24"
        font-weight="700"
        fill="#1c1b17">ROBOT DATA BUS</text>

  <line x1="695" y1="795" x2="1145" y2="795"
        stroke="#1c1b17"
        stroke-width="1"
        opacity="0.12"/>

  <!-- bus -->
  <line x1="745" y1="900" x2="1090" y2="900"
        stroke="#2F5D50"
        stroke-width="4"/>

  <circle cx="760" cy="900" r="14"
          fill="#fcfbf8"
          stroke="#2F5D50"
          stroke-width="3"/>

  <circle cx="875" cy="900" r="14"
          fill="#fcfbf8"
          stroke="#2F5D50"
          stroke-width="3"/>

  <circle cx="990" cy="900" r="14"
          fill="#fcfbf8"
          stroke="#2F5D50"
          stroke-width="3"/>

  <circle cx="1100" cy="900" r="14"
          fill="#fcfbf8"
          stroke="#2F5D50"
          stroke-width="3"/>

  <!-- nodes -->
  <rect x="700" y="830" width="105" height="45"
        fill="#ece9e0"
        stroke="#1c1b17"
        stroke-width="1.5"/>

  <text x="752" y="858"
        text-anchor="middle"
        font-family="Arial, Helvetica, sans-serif"
        font-size="12"
        fill="#1c1b17">ROBOT</text>

  <rect x="820" y="830" width="110" height="45"
        fill="#fcfbf8"
        stroke="#1c1b17"
        stroke-width="1.5"/>

  <text x="875" y="858"
        text-anchor="middle"
        font-family="Arial, Helvetica, sans-serif"
        font-size="12"
        fill="#1c1b17">EDGE</text>

  <rect x="945" y="830" width="90" height="45"
        fill="#fcfbf8"
        stroke="#1c1b17"
        stroke-width="1.5"/>

  <text x="990" y="858"
        text-anchor="middle"
        font-family="Arial, Helvetica, sans-serif"
        font-size="12"
        fill="#1c1b17">API</text>

  <rect x="1050" y="830" width="80" height="45"
        fill="#ece9e0"
        stroke="#1c1b17"
        stroke-width="1.5"/>

  <text x="1090" y="858"
        text-anchor="middle"
        font-family="Arial, Helvetica, sans-serif"
        font-size="12"
        fill="#1c1b17">DB</text>

  <text x="700" y="970"
        font-family="Arial, Helvetica, sans-serif"
        font-size="14"
        fill="#1c1b17">TCP / UDP</text>

  <text x="700" y="1010"
        font-family="Arial, Helvetica, sans-serif"
        font-size="14"
        fill="#1c1b17">REST / WebSocket</text>

  <text x="700" y="1050"
        font-family="Arial, Helvetica, sans-serif"
        font-size="14"
        fill="#1c1b17">TELEMETRY / COMMANDS</text>

  <text x="700" y="1090"
        font-family="Arial, Helvetica, sans-serif"
        font-size="14"
        fill="#1c1b17">STATE / EVENTS / LOGS</text>

  <rect x="700" y="1140" width="430" height="55"
        fill="#ece9e0"/>

  <text x="915" y="1173"
        text-anchor="middle"
        font-family="Arial, Helvetica, sans-serif"
        font-size="11"
        letter-spacing="1.5"
        fill="#6e6b63">LOW LATENCY / DETERMINISTIC DATA FLOW</text>


  <!-- C++ -->
  <rect x="1200" y="700" width="520" height="555"
        rx="3"
        fill="#fcfbf8"
        stroke="#2F5D50"
        stroke-width="2"/>

  <text x="1225" y="735"
        font-family="Arial, Helvetica, sans-serif"
        font-size="12"
        letter-spacing="2.5"
        fill="#6e6b63">07 / SOFTWARE</text>

  <text x="1225" y="770"
        font-family="Arial, Helvetica, sans-serif"
        font-size="24"
        font-weight="700"
        fill="#1c1b17">C++ CONTROL CORE</text>

  <line x1="1225" y1="795" x2="1695" y2="795"
        stroke="#1c1b17"
        stroke-width="1"
        opacity="0.12"/>

  <text x="1230" y="840"
        font-family="monospace"
        font-size="15"
        fill="#6e6b63">01</text>

  <text x="1270" y="840"
        font-family="monospace"
        font-size="15"
        fill="#1c1b17">#include &lt;robot.hpp&gt;</text>

  <text x="1230" y="880"
        font-family="monospace"
        font-size="15"
        fill="#6e6b63">02</text>

  <text x="1270" y="880"
        font-family="monospace"
        font-size="15"
        fill="#1c1b17">void update() {</text>

  <text x="1230" y="920"
        font-family="monospace"
        font-size="15"
        fill="#6e6b63">03</text>

  <text x="1295" y="920"
        font-family="monospace"
        font-size="15"
        fill="#1c1b17">readSensors();</text>

  <text x="1230" y="960"
        font-family="monospace"
        font-size="15"
        fill="#6e6b63">04</text>

  <text x="1295" y="960"
        font-family="monospace"
        font-size="15"
        fill="#1c1b17">estimateState();</text>

  <text x="1230" y="1000"
        font-family="monospace"
        font-size="15"
        fill="#6e6b63">05</text>

  <text x="1295" y="1000"
        font-family="monospace"
        font-size="15"
        fill="#1c1b17">solveIK();</text>

  <text x="1230" y="1040"
        font-family="monospace"
        font-size="15"
        fill="#6e6b63">06</text>

  <text x="1295" y="1040"
        font-family="monospace"
        font-size="15"
        fill="#1c1b17">commandJoints();</text>

  <text x="1230" y="1080"
        font-family="monospace"
        font-size="15"
        fill="#6e6b63">07</text>

  <text x="1270" y="1080"
        font-family="monospace"
        font-size="15"
        fill="#1c1b17">}</text>

  <line x1="1225" y1="1110" x2="1695" y2="1110"
        stroke="#1c1b17"
        stroke-width="1"
        opacity="0.1"/>

  <text x="1225" y="1150"
        font-family="Arial, Helvetica, sans-serif"
        font-size="11"
        letter-spacing="1.5"
        fill="#9a968c">COMPILE → DEPLOY → EXECUTE</text>

  <circle cx="1232" cy="1190" r="5"
          fill="#2F5D50"/>

  <text x="1247" y="1195"
        font-family="Arial, Helvetica, sans-serif"
        font-size="11"
        letter-spacing="1.2"
        fill="#2F5D50">REAL-TIME LOOP ACTIVE</text>


  <!-- TELEMETRY -->
  <rect x="1750" y="700" width="570" height="555"
        rx="3"
        fill="#ece9e0"
        opacity="0.82"
        stroke="#2F5D50"
        stroke-width="2"/>

  <text x="1775" y="735"
        font-family="Arial, Helvetica, sans-serif"
        font-size="12"
        letter-spacing="2.5"
        fill="#6e6b63">08 / MONITORING</text>

  <text x="1775" y="770"
        font-family="Arial, Helvetica, sans-serif"
        font-size="24"
        font-weight="700"
        fill="#1c1b17">LIVE TELEMETRY</text>

  <line x1="1775" y1="795" x2="2295" y2="795"
        stroke="#1c1b17"
        stroke-width="1"
        opacity="0.12"/>

  <!-- metrics -->
  <text x="1775" y="845"
        font-family="Arial, Helvetica, sans-serif"
        font-size="13"
        fill="#1c1b17">CPU</text>

  <rect x="1850" y="832" width="340" height="18"
        fill="#fcfbf8"/>

  <rect x="1850" y="832" width="200" height="18"
        fill="#2F5D50"
        opacity="0.7"/>

  <text x="2200" y="847"
        font-family="monospace"
        font-size="12"
        fill="#6e6b63">59%</text>


  <text x="1775" y="895"
        font-family="Arial, Helvetica, sans-serif"
        font-size="13"
        fill="#1c1b17">MEMORY</text>

  <rect x="1850" y="882" width="340" height="18"
        fill="#fcfbf8"/>

  <rect x="1850" y="882" width="140" height="18"
        fill="#2F5D50"
        opacity="0.55"/>

  <text x="2200" y="897"
        font-family="monospace"
        font-size="12"
        fill="#6e6b63">41%</text>


  <text x="1775" y="945"
        font-family="Arial, Helvetica, sans-serif"
        font-size="13"
        fill="#1c1b17">CONTROL</text>

  <rect x="1850" y="932" width="340" height="18"
        fill="#fcfbf8"/>

  <rect x="1850" y="932" width="300" height="18"
        fill="#2F5D50"
        opacity="0.72"/>

  <text x="2200" y="947"
        font-family="monospace"
        font-size="12"
        fill="#6e6b63">89%</text>


  <text x="1775" y="995"
        font-family="Arial, Helvetica, sans-serif"
        font-size="13"
        fill="#1c1b17">NETWORK</text>

  <rect x="1850" y="982" width="340" height="18"
        fill="#fcfbf8"/>

  <rect x="1850" y="982" width="280" height="18"
        fill="#2F5D50"
        opacity="0.62"/>

  <text x="2200" y="997"
        font-family="monospace"
        font-size="12"
        fill="#6e6b63">83%</text>


  <!-- joint telemetry -->
  <text x="1775" y="1050"
        font-family="Arial, Helvetica, sans-serif"
        font-size="11"
        letter-spacing="1.5"
        fill="#6e6b63">JOINT LOAD</text>

  <line x1="1775" y1="1075" x2="2290" y2="1075"
        stroke="#1c1b17"
        stroke-width="1"
        opacity="0.12"/>

  <circle cx="1790" cy="1105" r="5" fill="#2F5D50"/>
  <text x="1805" y="1110"
        font-family="monospace"
        font-size="12"
        fill="#1c1b17">J1  32%</text>

  <circle cx="1905" cy="1105" r="5" fill="#2F5D50"/>
  <text x="1920" y="1110"
        font-family="monospace"
        font-size="12"
        fill="#1c1b17">J2  44%</text>

  <circle cx="2020" cy="1105" r="5" fill="#2F5D50"/>
  <text x="2035" y="1110"
        font-family="monospace"
        font-size="12"
        fill="#1c1b17">J3  28%</text>

  <circle cx="2135" cy="1105" r="5" fill="#2F5D50"/>
  <text x="2150" y="1110"
        font-family="monospace"
        font-size="12"
        fill="#1c1b17">J4  37%</text>

  <circle cx="1790" cy="1145" r="5" fill="#2F5D50"/>
  <text x="1805" y="1150"
        font-family="monospace"
        font-size="12"
        fill="#1c1b17">J5  22%</text>

  <circle cx="1905" cy="1145" r="5" fill="#2F5D50"/>
  <text x="1920" y="1150"
        font-family="monospace"
        font-size="12"
        fill="#1c1b17">J6  31%</text>

  <circle cx="2160" cy="1230" r="9" fill="#2F5D50"/>

  <text x="2180" y="1234"
        font-family="Arial, Helvetica, sans-serif"
        font-size="11"
        letter-spacing="1.2"
        fill="#2F5D50">SYSTEM NOMINAL</text>


  <!-- ====================================================== -->
  <!-- MAIN FLOW CONNECTIONS                                  -->
  <!-- ====================================================== -->

  <!-- top flow -->
  <line x1="390" y1="430" x2="420" y2="430"
        stroke="#2F5D50"
        stroke-width="2"
        stroke-dasharray="7 6"/>

  <line x1="770" y1="430" x2="800" y2="430"
        stroke="#2F5D50"
        stroke-width="2"
        stroke-dasharray="7 6"/>

  <line x1="1200" y1="430" x2="1230" y2="430"
        stroke="#2F5D50"
        stroke-width="2"
        stroke-dasharray="7 6"/>

  <circle cx="405" cy="430" r="4" fill="#2F5D50"/>
  <circle cx="785" cy="430" r="4" fill="#2F5D50"/>
  <circle cx="1215" cy="430" r="4" fill="#2F5D50"/>

  <!-- vertical system connections -->
  <path d="M235 655 L235 680"
        fill="none"
        stroke="#2F5D50"
        stroke-width="2"
        stroke-dasharray="6 7"/>

  <path d="M595 655 L595 675 L920 675 L920 700"
        fill="none"
        stroke="#2F5D50"
        stroke-width="2"
        stroke-dasharray="6 7"/>

  <path d="M1000 655 L1000 680"
        fill="none"
        stroke="#2F5D50"
        stroke-width="2"
        stroke-dasharray="6 7"/>

  <path d="M1775 655 L1775 680"
        fill="none"
        stroke="#2F5D50"
        stroke-width="2"
        stroke-dasharray="6 7"/>


  <!-- ====================================================== -->
  <!-- FOOTER                                                  -->
  <!-- ====================================================== -->



  <text x="75" y="1323"
        font-family="Arial, Helvetica, sans-serif"
        font-size="11"
        letter-spacing="2"
        fill="#9a968c">ROBOTICS SYSTEM ARCHITECTURE / SENSING + VISION + CONTROL + KINEMATICS + SOFTWARE + DATA</text>

  <text x="2320" y="1323"
        text-anchor="end"
        font-family="monospace"
        font-size="11"
        fill="#9a968c">RA-02</text>

</svg>